<svg width="650" height="650" viewBox="0 0 650 650" fill="none" xmlns="http://www.w3.org/2000/svg">
<path fill-rule="evenodd" clip-rule="evenodd" d="M325 650C504.493 650 650 504.493 650 325C650 145.507 504.493 0 325 0C145.507 0 0 145.507 0 325C0 504.493 145.507 650 325 650ZM279.79 193.812C271.205 190.953 261.893 190 251.805 190H150V453.389L254.133 453.15C263.445 453.15 272.757 451.244 282.069 448.445C291.382 445.586 299.918 440.88 306.951 435.103C313.983 429.444 320.191 420.807 324.072 411.277C328 401.747 330.28 390.311 330.28 376.969C330.28 360.649 326.352 346.413 320.191 334.977C314.081 323.541 303.992 314.904 290.703 310.198C300.112 304.54 307.824 296.856 312.528 288.279C318.009 279.643 320.289 268.207 320.289 254.864C320.289 243.428 318.688 232.945 315.584 224.308C312.432 215.731 307.824 209.001 301.567 204.295C295.311 199.59 288.326 195.658 279.79 193.812ZM266.5 289.232C261.117 294.057 254.133 296.856 245.596 296.856C245.596 296.856 197.483 296.856 197.483 296.975V234.97H242.492C247.1 234.97 251.077 234.97 254.909 235.864C258.74 236.817 261.893 238.723 264.997 240.629C268.149 243.428 270.478 246.406 271.981 250.159C273.533 253.911 274.309 259.57 274.309 265.407C274.309 275.89 271.884 284.348 266.5 289.232ZM261.117 407.644C257.188 408.537 252.581 409.49 247.876 409.49V409.371H197.483V335.93H248.652C258.74 335.93 267.276 338.729 273.533 344.507C279.79 351.238 282.846 360.768 282.846 374.11C282.846 380.84 281.293 386.618 279.79 391.324C277.462 396.089 275.085 398.888 271.981 401.866C268.926 404.785 264.997 406.691 261.117 407.644ZM425.828 420.033C413.46 420.033 404.147 416.221 397.891 408.537C391.683 400.913 387.027 386.618 387.027 371.072H499.696C500.472 355.824 499.696 342.422 498.144 329.08C494.991 315.738 490.383 303.349 484.126 292.866C477.918 281.43 470.11 273.865 460.021 267.134C449.933 260.404 438.341 257.604 425.1 257.604C412.587 257.604 402.499 260.523 392.41 265.288C383.098 269.993 374.562 277.617 367.529 286.254C360.545 295.784 355.161 306.327 351.232 318.716C347.304 331.046 345.752 344.507 345.752 358.802C345.752 374.11 347.401 387.452 351.232 399.841C354.385 412.23 359.769 422.714 366.802 431.35C373.786 440.88 381.595 447.611 391.683 452.316C401.723 457.141 412.684 460 425.1 460C442.949 460 457.742 454.342 470.11 444.752C482.526 434.269 491.838 418.008 498.095 395.136H460.021C458.518 400.913 454.686 406.572 448.43 412.349C442.173 417.174 434.413 420.033 425.828 420.033ZM422.772 297.809C432.86 297.809 441.397 301.562 446.877 308.292C452.261 315.023 456.19 324.613 457.742 338.729H387.803C387.803 335.537 388.364 332.216 389.01 328.398C389.123 327.728 389.239 327.043 389.354 326.34C390.131 321.635 391.78 316.81 394.835 313.058C397.891 309.245 400.995 305.374 405.7 302.515C410.404 299.715 415.788 297.809 422.772 297.809ZM465.502 208.167H378.49V233.898H465.502V208.167Z" fill="white"/>
</svg>
