<svg width="350" height="351" viewBox="0 0 350 351" fill="none" xmlns="http://www.w3.org/2000/svg">
<path fill-rule="evenodd" clip-rule="evenodd" d="M309.014 113.575C299.981 116.75 299.528 110.778 295.257 104.202C291.78 98.8346 288.113 94.6772 285.959 89.1213C289.361 87.4583 289.852 86.2488 294.047 85.3795C298.885 91.5779 310.602 106.658 309.014 113.575ZM308.863 75.137C312.869 80.6551 324.17 94.7905 322.356 101.556C314.343 104.126 313.512 99.4394 309.808 93.6567C306.86 88.9701 303.647 84.9638 301.455 80.0504L308.863 75.137ZM273.109 85.3795C277.871 94.715 286.299 106.016 292.233 115.2C304.819 134.702 317.102 124.271 318.841 112.819C338.079 109.606 335.433 101.216 327.08 88.3653C322.28 80.9953 314.079 66.2929 308.712 61.6819C304.668 63.6094 275.15 82.885 273.109 85.3795Z" fill="#1C1C1C"/>
<path fill-rule="evenodd" clip-rule="evenodd" d="M137.461 2.68346L148.195 33.4488C139.616 30.7276 130.016 24.7559 121.852 20.2961C106.091 11.6787 111.383 13.9087 94.715 17.8772L108.964 59.1496L119.206 56.0126L108.51 25.474C117.014 28.1575 125.82 34.1291 134.287 38.5134C144.491 43.7669 150.236 48.7559 161.802 40.063L147.666 0L137.461 2.68346Z" fill="#1C1C1C"/>
<path fill-rule="evenodd" clip-rule="evenodd" d="M319.975 253.38C312.076 281.121 287.358 269.216 290.684 254.098C296.391 228.208 324.813 236.561 319.975 253.38ZM300.586 227.603C291.742 231.307 280.139 246.69 280.214 260.069C280.29 273.071 296.428 285.279 309.997 280.063C318.539 276.737 330.217 261.77 330.558 248.05C330.86 234.444 314.041 221.934 300.586 227.603Z" fill="#1C1C1C"/>
<path fill-rule="evenodd" clip-rule="evenodd" d="M0 196.044L2.15433 205.72L19.2756 200.995L30.1228 235.389L14.0976 240.454L16.8945 250.658L58.5449 237.884L55.2567 227.301L39.4961 232.214L28.1197 198.766L44.0315 192.605L40.9701 182.816C32.6929 183.723 6.4252 192.189 0 196.044Z" fill="#1C1C1C"/>
<path fill-rule="evenodd" clip-rule="evenodd" d="M129.449 301.304L152.239 327.761C145.134 332.712 132.661 340.573 125.216 344.655C152.768 348.699 148.309 337.172 174.576 327.118L172.762 349.228L183.496 350.135L187.465 306.709L176.806 305.688C175.521 314.721 177.713 312.794 170.948 316.913C167.131 319.257 164.787 320.806 160.894 322.28C146.343 303.118 144.265 301.795 129.449 301.304Z" fill="#1C1C1C"/>
<path fill-rule="evenodd" clip-rule="evenodd" d="M215.887 319.37C216.227 319.446 216.68 319.446 216.907 319.446C232.214 318.879 220.082 309.241 232.554 301.228C255.912 286.224 270.879 314.343 245.102 324.51C229.342 330.746 235.124 316.8 219.855 327.156C228.132 339.326 240.832 338.343 254.778 330.066C264.302 324.397 274.205 314.419 266.872 299.301C260.032 285.241 249.487 282.369 232.668 290.646C222.879 295.446 210.784 304.328 215.887 319.37Z" fill="#1C1C1C"/>
<path fill-rule="evenodd" clip-rule="evenodd" d="M52.7244 276.359C42.2551 288.605 55.4835 302.816 63.0425 308.447C91.4646 329.499 105.449 300.737 102.539 288.832C100.724 281.235 79.8236 252.624 57.1087 269.783C70.715 285.09 65.8394 267.78 80.9953 277.115C104.126 291.402 86.5512 317.934 65.3102 298.129C53.3291 286.942 67.9181 282.86 52.7244 276.359Z" fill="#1C1C1C"/>
<path fill-rule="evenodd" clip-rule="evenodd" d="M36.8126 120.265C35.7921 125.178 34.0535 132.586 31.4079 136.517L17.915 123.477L36.8126 120.265ZM7.33228 129.562C14.589 134.589 18.4063 139.729 25.1716 146.268C30.9165 151.786 37.8331 156.586 42.8598 162.066C47.622 149.934 47.0551 150.803 39.2315 144.076C39.685 137.726 42.0661 131.943 43.7291 125.707C46.6394 114.709 46.337 118.942 56.4661 115.88L59.263 105.033C48.3401 106.054 37.1905 109.002 26.4945 111.118C10.2425 114.331 10.2425 111.912 7.33228 129.562Z" fill="#1C1C1C"/>
<path fill-rule="evenodd" clip-rule="evenodd" d="M305.272 153.033L306.444 198.009L315.704 197.82L314.646 163.767L349.228 162.709L349.039 151.71L305.272 153.033Z" fill="#1C1C1C"/>
<path fill-rule="evenodd" clip-rule="evenodd" d="M48.3781 54.1607C50.1544 59.0741 73.5497 79.8615 79.219 85.2285L87.156 77.6694C80.3529 67.8426 65.3481 58.734 57.0332 47.8867C53.745 49.5119 51.3261 52.0442 48.3781 54.1607Z" fill="#1C1C1C"/>
<path fill-rule="evenodd" clip-rule="evenodd" d="M212.825 49.285L221.934 52.3086L224.693 45.4677L215.433 42.0283L212.825 49.285Z" fill="#1C1C1C"/>
</svg>
