<svg width="650" height="650" viewBox="0 0 650 650" fill="none" xmlns="http://www.w3.org/2000/svg">
<path fill-rule="evenodd" clip-rule="evenodd" d="M325 650C504.492 650 650 504.493 650 325C650 145.507 504.492 0 325 0C145.508 0 0 145.507 0 325C0 504.493 145.508 650 325 650ZM179.927 243.389H242.16C244.922 243.389 247.16 245.628 247.16 248.389V448.317C247.16 451.079 244.922 453.317 242.16 453.317H179.927C177.165 453.317 174.927 451.079 174.927 448.317V248.389C174.927 245.628 177.165 243.389 179.927 243.389ZM211.066 144C188.422 144 170 162.402 170 185.021C170 207.65 188.422 226.059 211.066 226.059C233.692 226.059 252.099 207.649 252.099 185.021C252.1 162.402 233.692 144 211.066 144ZM345.775 261.374C356.982 249.165 375.459 238.42 400.454 238.42C470.549 238.42 480 289.089 480 338.654V448.318C480 451.08 477.762 453.318 475 453.318H412.88C410.118 453.318 407.88 451.08 407.88 448.318V351.114C407.88 323.898 405.869 303.08 380.563 303.08C357.327 303.08 348.273 316.066 348.273 349.399V448.317C348.273 451.079 346.035 453.317 343.273 453.317H281.176C278.414 453.317 276.176 451.079 276.176 448.317V248.389C276.176 245.628 278.414 243.389 281.176 243.389H340.775C343.537 243.389 345.775 245.628 345.775 248.389V261.374Z" fill="white"/>
</svg>
