<svg width="383" height="64" viewBox="0 0 383 64" fill="none" xmlns="http://www.w3.org/2000/svg">
<path fill-rule="evenodd" clip-rule="evenodd" d="M0 41.9519C1.27 49.0719 2.39 53.1919 9.23 57.3119C21.94 64.9719 58.93 65.5419 69.82 55.6819C72.44 53.3019 74.32 49.0819 74.49 44.0219C74.69 38.1219 73.14 35.0119 70.13 32.0319C63.13 25.1219 41.38 24.9919 29.85 23.7119C25.69 23.2519 18.99 22.5719 19.42 17.9719C20.07 11.0219 45.72 11.8319 51.9 16.0419C54.79 18.0119 52.58 20.2019 55.65 20.2719C60.33 20.3919 67.17 20.5119 71.75 20.1819C73.2 15.3519 67.86 8.66194 63.41 5.96194C50.37 -1.96806 19.77 -2.19806 7.28 6.54194C1.63 10.4919 -1.23 20.4919 4.22 27.7419C13.12 39.5719 41.44 36.2519 52.9 39.7419C58.04 41.3019 57.41 46.5419 53.3 48.3219C47.79 50.7019 31.63 50.3319 25.77 48.8719C23.98 48.4219 21.86 47.7019 20.62 46.6219C18.14 44.4519 19.25 45.0019 17.94 41.9419C15.99 41.5519 1.89 41.5419 0 41.9519Z" fill="#1C1C1C"/>
<path fill-rule="evenodd" clip-rule="evenodd" d="M337.94 15.342C346.06 14.452 377.93 16.162 382.02 15.022C382.14 12.482 382.5 3.76197 381.84 2.02197C379.89 1.05197 355.54 1.71197 351.09 1.71197C346.22 1.71197 323.29 1.42197 320.4 1.85197L320.52 61.302L382.05 61.192L382.03 47.982C375.79 46.862 341.43 48.782 337.98 47.622C337.28 45.892 337.6 40.712 337.79 38.452C342.49 37.322 371.64 38.992 380.17 38.162C380.75 36.332 380.43 33.332 380.43 31.312C380.43 30.132 380.44 28.962 380.45 27.772C380.45 27.392 380.46 26.372 380.4 26.032L337.7 24.662L337.94 15.342Z" fill="#1C1C1C"/>
<path fill-rule="evenodd" clip-rule="evenodd" d="M108.26 37.022C108.89 34.852 118.82 15.402 119.89 14.372C120.58 15.172 130.4 34.142 131.47 37.012L108.26 37.022ZM95.92 61.262C96.94 58.772 100.23 52.132 101.66 50.152C110.84 49.762 126.6 50.082 136.47 50.082C138.61 50.082 138.49 50.692 139.24 52.172L143.78 61.312L162.15 61.202C161.29 58.762 155.99 49.082 154.41 45.832C151.87 40.632 149.13 35.762 146.62 30.692L132.97 4.12197C131.85 1.85197 132.55 1.71197 129.77 1.71197C124.18 1.71197 112.97 1.47197 108.02 1.80197C106.84 3.52197 105.15 7.04197 104.09 9.16197C100.04 17.302 78.24 58.582 77.46 61.302L95.92 61.262Z" fill="#1C1C1C"/>
<path fill-rule="evenodd" clip-rule="evenodd" d="M170.39 61.2419C176.19 61.4119 187.32 61.5719 191.24 61.0419L191.5 43.6719C201.99 43.8519 296.56 44.0419 301.82 43.5319L302.02 29.2919C296.1 28.7419 203.87 29.0419 191.87 29.0819L191.44 16.4019L313.45 16.4519L313.8 1.75191L170.6 1.71191C169.57 3.40191 169.21 58.2219 170.39 61.2419Z" fill="#1C1C1C"/>
</svg>
