<svg width="650" height="650" viewBox="0 0 650 650" fill="none" xmlns="http://www.w3.org/2000/svg">
<path fill-rule="evenodd" clip-rule="evenodd" d="M325 650C504.493 650 650 504.493 650 325C650 145.507 504.493 0 325 0C145.507 0 0 145.507 0 325C0 504.493 145.507 650 325 650ZM473.84 183.319C476.539 148.629 444.161 162.913 444.161 162.913C420.254 174.11 395.599 185.489 370.677 196.991C293.405 232.653 213.573 269.496 145.568 305.756C108.693 321.062 130.278 336.366 130.278 336.366L188.738 356.772C215.719 365.955 230.109 355.752 230.109 355.752L356.022 258.823C400.991 224.132 390.199 252.701 379.406 264.945L284.971 366.975C270.581 381.259 277.776 393.503 284.072 399.625C301.915 417.437 345.808 450.027 364.97 464.255C369.955 467.956 373.267 470.415 374.009 471.047C378.507 475.128 402.79 493.493 418.979 489.412C435.167 485.331 436.966 461.864 436.966 461.864L458.551 301.676C461.789 273.862 465.503 247.128 468.469 225.778C471.27 205.618 473.403 190.257 473.84 183.319Z" fill="white"/>
</svg>
