<svg width="650" height="650" viewBox="0 0 650 650" fill="none" xmlns="http://www.w3.org/2000/svg">
<path fill-rule="evenodd" clip-rule="evenodd" d="M325 650C504.493 650 650 504.492 650 325C650 145.508 504.493 0 325 0C145.507 0 0 145.508 0 325C0 504.492 145.507 650 325 650ZM258.217 475C216.506 475 177.685 462.464 145 440.971C150.778 441.675 156.656 442.034 162.622 442.033C197.225 442.033 229.071 429.924 254.35 409.608C222.029 409 194.752 387.103 185.352 357.012C189.864 357.899 194.491 358.375 199.25 358.375C205.986 358.375 212.512 357.445 218.709 355.717C184.923 348.757 159.463 318.149 159.463 281.455C159.463 281.248 159.463 281.042 159.465 280.837C159.466 280.725 159.467 280.613 159.47 280.501C169.425 286.172 180.813 289.581 192.922 289.975C173.103 276.393 160.067 253.21 160.067 226.937C160.067 213.056 163.709 200.047 170.068 188.859C206.495 234.684 260.917 264.833 322.3 267.994C321.04 262.449 320.383 256.669 320.383 250.733C320.383 208.909 353.456 175 394.242 175C415.486 175 434.681 184.195 448.153 198.914C464.975 195.52 480.782 189.214 495.054 180.537C489.541 198.224 477.83 213.063 462.58 222.438C477.52 220.608 491.754 216.534 505 210.51C495.098 225.698 482.577 239.037 468.144 249.715C468.285 252.964 468.356 256.232 468.356 259.512C468.356 359.597 394.069 475 258.217 475Z" fill="white"/>
</svg>
