<svg width="650" height="650" viewBox="0 0 650 650" fill="none" xmlns="http://www.w3.org/2000/svg">
<path fill-rule="evenodd" clip-rule="evenodd" d="M325 650C504.493 650 650 504.493 650 325C650 145.507 504.493 0 325 0C145.507 0 0 145.507 0 325C0 504.493 145.507 650 325 650ZM492.791 239.118C488.755 223.823 476.935 211.765 461.943 207.647C434.554 200 324.999 200 324.999 200C324.999 200 215.444 200 188.056 207.353C173.353 211.471 161.244 223.823 157.208 239.118C150 267.059 150 325 150 325C150 325 150 383.235 157.208 410.882C161.244 426.177 173.064 438.235 188.056 442.353C215.733 450 324.999 450 324.999 450C324.999 450 434.554 450 461.943 442.647C476.935 438.529 488.755 426.471 492.791 411.177C499.999 383.235 499.999 325.294 499.999 325.294C499.999 325.294 500.287 267.059 492.791 239.118ZM290.115 378.529L381.218 325L290.115 271.471V378.529Z" fill="white"/>
</svg>
